<?xml version="1.0" encoding="iso-8859-1"?>
<!-- Generator: Adobe Illustrator 19.0.0, SVG Export Plug-In . SVG Version: 6.00 Build 0)  -->
<svg version="1.1" id="Layer_1" xmlns="http://www.w3.org/2000/svg" xmlns:xlink="http://www.w3.org/1999/xlink" x="0px" y="0px"
	 viewBox="0 0 512 512" style="enable-background:new 0 0 512 512;" xml:space="preserve">
<path style="fill:#E0DDDF;" d="M438.958,501.618l-89.43-289.584V179.04c0-4.427-3.589-8.017-8.017-8.017H170.489
	c-4.427,0-8.017,3.589-8.017,8.017v32.995l-89.43,289.584c-0.751,2.432-0.302,5.076,1.209,7.124c1.51,2.049,3.906,3.258,6.451,3.258
	h350.597c2.545,0,4.94-1.209,6.451-3.257C439.261,506.694,439.71,504.051,438.958,501.618z"/>
<path style="fill:#C1BCBF;" d="M107.921,508.743c-1.511-2.049-1.96-4.692-1.209-7.125l81.657-264.414
	c0.698-2.262,2.8-3.795,5.168-3.767l162.595-0.043l-6.604-21.36V179.04c0-4.427-3.589-8.017-8.017-8.017H170.489
	c-4.427,0-8.017,3.589-8.017,8.017v32.995l-2.946,9.54L73.042,501.618c-0.991,3.208,0.106,6.784,2.975,8.877
	c1.412,1.03,3.156,1.505,4.904,1.505l33.451,0C111.827,512,109.432,510.791,107.921,508.743z"/>
<path style="fill:#5CC4E0;" d="M391.529,348.036l-270.958-0.323L73.042,501.618c-0.751,2.432-0.302,5.076,1.209,7.124
	c1.51,2.049,3.906,3.258,6.451,3.258h350.597c2.545,0,4.94-1.209,6.451-3.257c1.511-2.049,1.959-4.692,1.209-7.124L391.529,348.036z
	"/>
<path style="fill:#439EE8;" d="M107.921,508.743c-1.511-2.049-1.959-4.692-1.209-7.124l47.517-153.865l-33.658-0.04L73.042,501.618
	c-0.751,2.432-0.302,5.076,1.209,7.124c1.51,2.049,3.906,3.258,6.451,3.258h33.67C111.827,512,109.432,510.791,107.921,508.743z"/>
<path style="fill:#FF675C;" d="M362.889,145.37H149.111c-4.427,0-8.017,3.589-8.017,8.017v55.582c0,4.427,3.589,8.017,8.017,8.017
	h213.779c4.427,0,8.017-3.589,8.017-8.017v-55.582C370.906,148.959,367.317,145.37,362.889,145.37z"/>
<path style="fill:#DB3D5A;" d="M149.111,145.37c-4.427,0-8.017,3.589-8.017,8.017v55.582c0,4.427,3.589,8.017,8.017,8.017h28.504
	V145.37H149.111z"/>
<rect x="247.182" y="145.37" style="fill:#FFB3AD;" width="49.704" height="71.616"/>
<path style="fill:#BEE7F3;" d="M317.996,135.749c-17.387,0-31.532-14.146-31.532-31.532s14.146-31.532,31.532-31.532
	c17.387,0,31.532,14.146,31.532,31.532S335.382,135.749,317.996,135.749z"/>
<path style="fill:#5CC4E0;" d="M332.96,120.785c-17.387,0-31.532-14.146-31.532-31.532c0-4.836,1.097-9.418,3.051-13.517
	c-10.642,5.071-18.015,15.93-18.015,28.482c0,17.387,14.146,31.532,31.532,31.532c12.552,0,23.411-7.373,28.482-18.015
	C342.378,119.688,337.796,120.785,332.96,120.785z"/>
<path style="fill:#BEE7F3;" d="M262.413,54.514c-15.029,0-27.257-12.227-27.257-27.257S247.385,0,262.413,0
	c15.029,0,27.257,12.227,27.257,27.257S277.443,54.514,262.413,54.514z"/>
<path style="fill:#5CC4E0;" d="M275.507,41.42c-15.029,0-27.257-12.227-27.257-27.257c0-4.138,0.931-8.059,2.588-11.575
	c-9.257,4.361-15.682,13.777-15.682,24.669c0,15.03,12.228,27.257,27.257,27.257c10.892,0,20.308-6.425,24.669-15.682
	C283.567,40.489,279.644,41.42,275.507,41.42z"/>
<path style="fill:#BEE7F3;" d="M194.004,118.647c-17.387,0-31.532-14.146-31.532-31.532s14.146-31.532,31.532-31.532
	s31.532,14.146,31.532,31.532S211.391,118.647,194.004,118.647z"/>
<path style="fill:#5CC4E0;" d="M206.296,106.355c-17.387,0-31.532-14.146-31.532-31.532c0-5.541,1.442-10.749,3.961-15.279
	c-9.684,5.388-16.254,15.724-16.254,27.571c0,17.387,14.146,31.532,31.532,31.532c11.847,0,22.183-6.569,27.571-16.254
	C217.045,104.913,211.838,106.355,206.296,106.355z"/>
<g>
	<path style="fill:#439EE8;" d="M285.929,281.119h-59.858c-4.427,0-8.017-3.589-8.017-8.017c0-4.427,3.589-8.017,8.017-8.017h59.858
		c4.427,0,8.017,3.589,8.017,8.017C293.946,277.53,290.356,281.119,285.929,281.119z"/>
	<path style="fill:#439EE8;" d="M285.929,319.599h-59.858c-4.427,0-8.017-3.589-8.017-8.017c0-4.427,3.589-8.017,8.017-8.017h59.858
		c4.427,0,8.017,3.589,8.017,8.017C293.946,316.01,290.356,319.599,285.929,319.599z"/>
	<path style="fill:#439EE8;" d="M285.929,358.079h-59.858c-4.427,0-8.017-3.589-8.017-8.017c0-4.427,3.589-8.017,8.017-8.017h59.858
		c4.427,0,8.017,3.589,8.017,8.017C293.946,354.49,290.356,358.079,285.929,358.079z"/>
	<path style="fill:#439EE8;" d="M285.929,396.56h-59.858c-4.427,0-8.017-3.589-8.017-8.017c0-4.427,3.589-8.017,8.017-8.017h59.858
		c4.427,0,8.017,3.589,8.017,8.017C293.946,392.97,290.356,396.56,285.929,396.56z"/>
	<path style="fill:#439EE8;" d="M285.929,435.04h-59.858c-4.427,0-8.017-3.589-8.017-8.017c0-4.427,3.589-8.017,8.017-8.017h59.858
		c4.427,0,8.017,3.589,8.017,8.017C293.946,431.45,290.356,435.04,285.929,435.04z"/>
	<path style="fill:#439EE8;" d="M285.929,473.52h-59.858c-4.427,0-8.017-3.589-8.017-8.017s3.589-8.017,8.017-8.017h59.858
		c4.427,0,8.017,3.589,8.017,8.017S290.356,473.52,285.929,473.52z"/>
</g>
<g>
</g>
<g>
</g>
<g>
</g>
<g>
</g>
<g>
</g>
<g>
</g>
<g>
</g>
<g>
</g>
<g>
</g>
<g>
</g>
<g>
</g>
<g>
</g>
<g>
</g>
<g>
</g>
<g>
</g>
</svg>
