<?xml version="1.0" encoding="iso-8859-1"?>
<!-- Generator: Adobe Illustrator 19.0.0, SVG Export Plug-In . SVG Version: 6.00 Build 0)  -->
<svg version="1.1" id="Layer_1" xmlns="http://www.w3.org/2000/svg" xmlns:xlink="http://www.w3.org/1999/xlink" x="0px" y="0px"
	 viewBox="0 0 512 512" style="enable-background:new 0 0 512 512;" xml:space="preserve">
<g>
	<g>
		<path d="M438.958,501.618l-86.58-280.357h10.511c4.427,0,8.017-3.589,8.017-8.017v-55.582c0-4.427-3.589-8.017-8.017-8.017
			H149.111c-4.427,0-8.017,3.589-8.017,8.017v55.582c0,4.427,3.589,8.017,8.017,8.017h10.513l-53.568,173.467
			c-1.306,4.231,1.064,8.719,5.294,10.025c0.788,0.244,1.584,0.359,2.369,0.359c3.424,0,6.594-2.211,7.658-5.653l12.778-41.38
			h198.905c0.009,0.03,0.016,0.061,0.025,0.091c0,0,9.599,35.939,11.985,44.979c0.949,3.595,4.194,5.972,7.746,5.972
			c0.677,0,1.366-0.087,2.051-0.267c4.281-1.13,6.835-5.517,5.705-9.797c-2.39-9.055-10.915-40.977-10.915-40.977h28.193
			l42.583,137.887H91.568l17.262-55.889c1.306-4.231-1.064-8.719-5.294-10.025c-4.23-1.306-8.719,1.064-10.025,5.294l-20.468,66.271
			C71.476,506.689,75.4,512,80.701,512h350.597C436.6,512,440.524,506.689,438.958,501.618z M157.127,205.228v-39.549h197.745
			v39.549H157.127z M345.366,342.047v-0.001c-5.854-21.89-11.805-44.26-17.471-66.36c-1.1-4.289-5.466-6.873-9.757-5.774
			c-4.288,1.1-6.874,5.467-5.774,9.757c5.328,20.781,10.899,41.771,16.405,62.378H139.105l37.298-120.785h159.194l37.301,120.785
			H345.366z"/>
	</g>
</g>
<g>
	<g>
		<path d="M317.996,72.685c-17.387,0-31.532,14.146-31.532,31.532c0,17.387,14.146,31.532,31.532,31.532
			c17.387,0,31.532-14.146,31.532-31.532C349.528,86.831,335.382,72.685,317.996,72.685z M317.996,119.716
			c-8.546,0-15.499-6.953-15.499-15.499c0-8.546,6.953-15.499,15.499-15.499c8.546,0,15.499,6.953,15.499,15.499
			C333.495,112.763,326.542,119.716,317.996,119.716z"/>
	</g>
</g>
<g>
	<g>
		<path d="M262.413,0c-15.03,0-27.257,12.227-27.257,27.257s12.227,27.257,27.257,27.257c15.03,0,27.257-12.227,27.257-27.257
			S277.443,0,262.413,0z M262.413,38.48c-6.189,0-11.223-5.034-11.223-11.223s5.034-11.223,11.223-11.223
			c6.189,0,11.223,5.034,11.223,11.223S268.602,38.48,262.413,38.48z"/>
	</g>
</g>
<g>
	<g>
		<path d="M194.004,55.582c-17.387,0-31.532,14.146-31.532,31.532c0,17.387,14.146,31.532,31.532,31.532
			c17.387,0,31.532-14.146,31.532-31.532C225.537,69.728,211.391,55.582,194.004,55.582z M194.004,102.614
			c-8.546,0-15.499-6.953-15.499-15.499c0-8.546,6.953-15.499,15.499-15.499c8.546,0,15.499,6.953,15.499,15.499
			C209.503,95.661,202.55,102.614,194.004,102.614z"/>
	</g>
</g>
<g>
	<g>
		<path d="M285.929,265.086h-59.858c-4.427,0-8.017,3.589-8.017,8.017s3.589,8.017,8.017,8.017h59.858
			c4.427,0,8.017-3.589,8.017-8.017S290.356,265.086,285.929,265.086z"/>
	</g>
</g>
<g>
	<g>
		<path d="M285.929,303.566h-59.858c-4.427,0-8.017,3.589-8.017,8.017s3.589,8.017,8.017,8.017h59.858
			c4.427,0,8.017-3.589,8.017-8.017S290.356,303.566,285.929,303.566z"/>
	</g>
</g>
<g>
	<g>
		<path d="M285.929,380.526h-59.858c-4.427,0-8.017,3.589-8.017,8.017c0,4.427,3.589,8.017,8.017,8.017h59.858
			c4.427,0,8.017-3.589,8.017-8.017C293.946,384.115,290.356,380.526,285.929,380.526z"/>
	</g>
</g>
<g>
	<g>
		<path d="M285.929,419.006h-59.858c-4.427,0-8.017,3.589-8.017,8.017c0,4.427,3.589,8.017,8.017,8.017h59.858
			c4.427,0,8.017-3.589,8.017-8.017C293.946,422.596,290.356,419.006,285.929,419.006z"/>
	</g>
</g>
<g>
	<g>
		<path d="M285.929,457.486h-59.858c-4.427,0-8.017,3.589-8.017,8.017c0,4.427,3.589,8.017,8.017,8.017h59.858
			c4.427,0,8.017-3.589,8.017-8.017C293.946,461.076,290.356,457.486,285.929,457.486z"/>
	</g>
</g>
<g>
	<g>
		<path d="M370.658,437.87l-1.104-4.322c-1.097-4.289-5.462-6.872-9.754-5.78c-4.289,1.098-6.877,5.465-5.779,9.754l1.101,4.306
			c0.924,3.628,4.184,6.04,7.762,6.04c0.655,0,1.321-0.081,1.985-0.25C369.159,446.526,371.75,442.162,370.658,437.87z"/>
	</g>
</g>
<g>
</g>
<g>
</g>
<g>
</g>
<g>
</g>
<g>
</g>
<g>
</g>
<g>
</g>
<g>
</g>
<g>
</g>
<g>
</g>
<g>
</g>
<g>
</g>
<g>
</g>
<g>
</g>
<g>
</g>
</svg>
